<?xml version="1.0" encoding="UTF-8" standalone="no"?>
<svg
   xmlns:dc="http://purl.org/dc/elements/1.1/"
   xmlns:cc="http://creativecommons.org/ns#"
   xmlns:rdf="http://www.w3.org/1999/02/22-rdf-syntax-ns#"
   xmlns:svg="http://www.w3.org/2000/svg"
   xmlns="http://www.w3.org/2000/svg"
   viewBox="0 0 200 200"
   height="200"
   width="200"
   xml:space="preserve"
   id="svg2"
   version="1.1"><metadata
     id="metadata8"><rdf:RDF><cc:Work
         rdf:about=""><dc:format>image/svg+xml</dc:format><dc:type
           rdf:resource="http://purl.org/dc/dcmitype/StillImage" /></cc:Work></rdf:RDF></metadata><defs
     id="defs6"><clipPath
       id="clipPath18"
       clipPathUnits="userSpaceOnUse"><path
         id="path16"
         d="M 0,150 H 150 V 0 H 0 Z" /></clipPath><clipPath
       id="clipPath158"
       clipPathUnits="userSpaceOnUse"><path
         id="path156"
         d="M 0,150 H 150 V 0 H 0 Z" /></clipPath><clipPath
       id="clipPath178"
       clipPathUnits="userSpaceOnUse"><path
         id="path176"
         d="M 39.2422,67.716 H 84.7229 V 45.2294 H 39.2422 Z" /></clipPath><clipPath
       id="clipPath194"
       clipPathUnits="userSpaceOnUse"><path
         id="path192"
         d="m 75.3581,56.1484 h 15.748 v -7.6816 h -15.748 z" /></clipPath><clipPath
       id="clipPath210"
       clipPathUnits="userSpaceOnUse"><path
         id="path208"
         d="M 79.5019,62.9586 H 95.158 V 52.963 H 79.5019 Z" /></clipPath><clipPath
       id="clipPath226"
       clipPathUnits="userSpaceOnUse"><path
         id="path224"
         d="M 83.5164,69.5129 H 100.009 V 58.3374 H 83.5164 Z" /></clipPath><clipPath
       id="clipPath242"
       clipPathUnits="userSpaceOnUse"><path
         id="path240"
         d="M 58.8011,85.1628 H 113.238 V 62.2422 H 58.8011 Z" /></clipPath><clipPath
       id="clipPath258"
       clipPathUnits="userSpaceOnUse"><path
         id="path256"
         d="M 65.7109,50.2111 H 70.596 V 48.5034 H 65.7109 Z" /></clipPath><clipPath
       id="clipPath274"
       clipPathUnits="userSpaceOnUse"><path
         id="path272"
         d="m 70.4596,48.7545 h 8.7797 v -5.405 h -8.7797 z" /></clipPath><clipPath
       id="clipPath290"
       clipPathUnits="userSpaceOnUse"><path
         id="path288"
         d="m 93.8893,81.6329 h 5.065 V 70.615 h -5.065 z" /></clipPath><clipPath
       id="clipPath306"
       clipPathUnits="userSpaceOnUse"><path
         id="path304"
         d="m 93.9244,74.9017 h 6.6906 v -4.3072 h -6.6906 z" /></clipPath><clipPath
       id="clipPath322"
       clipPathUnits="userSpaceOnUse"><path
         id="path320"
         d="m 77.7857,76.075 h 6.7407 v -2.9979 h -6.7407 z" /></clipPath><clipPath
       id="clipPath338"
       clipPathUnits="userSpaceOnUse"><path
         id="path336"
         d="m 77.805,70.7597 h 2.4661 V 68.7776 H 77.805 Z" /></clipPath><clipPath
       id="clipPath354"
       clipPathUnits="userSpaceOnUse"><path
         id="path352"
         d="m 74.7465,65.3693 h 3.2237 V 61.913 h -3.2237 z" /></clipPath><clipPath
       id="clipPath370"
       clipPathUnits="userSpaceOnUse"><path
         id="path368"
         d="m 71.5861,57.649 h 2.0517 v -2.4582 h -2.0517 z" /></clipPath></defs><g
     transform="matrix(1.3333333,0,0,-1.3333333,0,200)"
     id="g10"><g
       id="g12"><g
         clip-path="url(#clipPath18)"
         id="g14"><g
           transform="translate(113.2646,68.877)"
           id="g20"><path
             id="path22"
             style="fill:#6ba5d9;fill-opacity:1;fill-rule:nonzero;stroke:none"
             d="m 0,0 c 0,-20.436 -16.566,-37.002 -37.003,-37.002 -20.435,0 -37.002,16.566 -37.002,37.002 0,20.436 16.567,37.002 37.002,37.002 C -16.566,37.002 0,20.436 0,0" /></g></g></g><text
       id="text26"
       style="font-variant:normal;font-weight:normal;font-stretch:normal;font-size:9.00002384px;font-family:'Comic Sans MS';-inkscape-font-specification:ComicSansMS;writing-mode:lr-tb;fill:#2a5e78;fill-opacity:1;fill-rule:nonzero;stroke:none"
       transform="matrix(0.39205451,0.91994199,0.91994199,-0.39205451,38.357,85.2713)"><tspan
         id="tspan24"
         y="0"
         x="0">A</tspan></text>
<text
       id="text30"
       style="font-variant:normal;font-weight:normal;font-stretch:normal;font-size:9.00000191px;font-family:'Comic Sans MS';-inkscape-font-specification:ComicSansMS;writing-mode:lr-tb;fill:#2a5e78;fill-opacity:1;fill-rule:nonzero;stroke:none"
       transform="matrix(0.50924431,0.860622,0.860622,-0.50924431,40.907,91.1045)"><tspan
         id="tspan28"
         y="0"
         x="0">s</tspan></text>
<text
       id="text34"
       style="font-variant:normal;font-weight:normal;font-stretch:normal;font-size:9.0000515px;font-family:'Comic Sans MS';-inkscape-font-specification:ComicSansMS;writing-mode:lr-tb;fill:#2a5e78;fill-opacity:1;fill-rule:nonzero;stroke:none"
       transform="matrix(0.5968077,0.8023843,0.8023843,-0.5968077,43.054,94.7493)"><tspan
         id="tspan32"
         y="0"
         x="0">s</tspan></text>
<text
       id="text38"
       style="font-variant:normal;font-weight:normal;font-stretch:normal;font-size:9.00000763px;font-family:'Comic Sans MS';-inkscape-font-specification:ComicSansMS;writing-mode:lr-tb;fill:#2a5e78;fill-opacity:1;fill-rule:nonzero;stroke:none"
       transform="matrix(0.68043277,0.73281051,0.73281051,-0.68043277,45.5471,98.1333)"><tspan
         id="tspan36"
         y="0"
         x="0">o</tspan></text>
<text
       id="text42"
       style="font-variant:normal;font-weight:normal;font-stretch:normal;font-size:9px;font-family:'Comic Sans MS';-inkscape-font-specification:ComicSansMS;writing-mode:lr-tb;fill:#2a5e78;fill-opacity:1;fill-rule:nonzero;stroke:none"
       transform="matrix(0.75826671,0.65194448,0.65194448,-0.75826671,48.6468,101.481)"><tspan
         id="tspan40"
         y="0"
         x="0">c</tspan></text>
<text
       id="text46"
       style="font-variant:normal;font-weight:normal;font-stretch:normal;font-size:8.99998379px;font-family:'Comic Sans MS';-inkscape-font-specification:ComicSansMS;writing-mode:lr-tb;fill:#2a5e78;fill-opacity:1;fill-rule:nonzero;stroke:none"
       transform="matrix(0.81145699,0.58441214,0.58441214,-0.81145699,52.0721,104.3753)"><tspan
         id="tspan44"
         y="0"
         x="0">i</tspan></text>
<text
       id="text50"
       style="font-variant:normal;font-weight:normal;font-stretch:normal;font-size:8.99999332px;font-family:'Comic Sans MS';-inkscape-font-specification:ComicSansMS;writing-mode:lr-tb;fill:#2a5e78;fill-opacity:1;fill-rule:nonzero;stroke:none"
       transform="matrix(0.85863395,0.51258926,0.51258926,-0.85863395,53.9762,105.8097)"><tspan
         id="tspan48"
         y="0"
         x="0">a</tspan></text>
<text
       id="text54"
       style="font-variant:normal;font-weight:normal;font-stretch:normal;font-size:9.00002098px;font-family:'Comic Sans MS';-inkscape-font-specification:ComicSansMS;writing-mode:lr-tb;fill:#2a5e78;fill-opacity:1;fill-rule:nonzero;stroke:none"
       transform="matrix(0.90844236,0.41801015,0.41801015,-0.90844236,57.7806,108.0798)"><tspan
         id="tspan52"
         y="0"
         x="0">t</tspan></text>
<text
       id="text58"
       style="font-variant:normal;font-weight:normal;font-stretch:normal;font-size:9.00004292px;font-family:'Comic Sans MS';-inkscape-font-specification:ComicSansMS;writing-mode:lr-tb;fill:#2a5e78;fill-opacity:1;fill-rule:nonzero;stroke:none"
       transform="matrix(0.93977331,0.34179837,0.34179837,-0.93977331,61.5415,109.7772)"><tspan
         id="tspan56"
         y="0"
         x="0">i</tspan></text>
<text
       id="text62"
       style="font-variant:normal;font-weight:normal;font-stretch:normal;font-size:8.99996567px;font-family:'Comic Sans MS';-inkscape-font-specification:ComicSansMS;writing-mode:lr-tb;fill:#2a5e78;fill-opacity:1;fill-rule:nonzero;stroke:none"
       transform="matrix(0.96602586,0.25844542,0.25844542,-0.96602586,63.759,110.6412)"><tspan
         id="tspan60"
         y="0"
         x="0">o</tspan></text>
<text
       id="text66"
       style="font-variant:normal;font-weight:normal;font-stretch:normal;font-size:8.99998665px;font-family:'Comic Sans MS';-inkscape-font-specification:ComicSansMS;writing-mode:lr-tb;fill:#2a5e78;fill-opacity:1;fill-rule:nonzero;stroke:none"
       transform="matrix(0.98905705,0.14753356,0.14753356,-0.98905705,68.175,111.83)"><tspan
         id="tspan64"
         y="0"
         x="0">n</tspan></text>
<text
       id="text70"
       style="font-variant:normal;font-weight:normal;font-stretch:normal;font-size:8.99996853px;font-family:'Comic Sans MS';-inkscape-font-specification:ComicSansMS;writing-mode:lr-tb;fill:#2a5e78;fill-opacity:1;fill-rule:nonzero;stroke:none"
       transform="matrix(0.9995368,-0.03043344,-0.03043344,-0.9995368,75.2257,112.6783)"><tspan
         id="tspan68"
         y="0"
         x="0">I</tspan></text>
<text
       id="text74"
       style="font-variant:normal;font-weight:normal;font-stretch:normal;font-size:9.00004387px;font-family:'Comic Sans MS';-inkscape-font-specification:ComicSansMS;writing-mode:lr-tb;fill:#2a5e78;fill-opacity:1;fill-rule:nonzero;stroke:none"
       transform="matrix(0.98921736,-0.14645484,-0.14645484,-0.98921736,79.963,112.5391)"><tspan
         id="tspan72"
         y="0"
         x="0">n</tspan></text>
<text
       id="text78"
       style="font-variant:normal;font-weight:normal;font-stretch:normal;font-size:8.99996853px;font-family:'Comic Sans MS';-inkscape-font-specification:ComicSansMS;writing-mode:lr-tb;fill:#2a5e78;fill-opacity:1;fill-rule:nonzero;stroke:none"
       transform="matrix(0.96762565,-0.25238978,-0.25238978,-0.96762565,84.4405,111.8734)"><tspan
         id="tspan76"
         y="0"
         x="0">t</tspan></text>
<text
       id="text82"
       style="font-variant:normal;font-weight:normal;font-stretch:normal;font-size:9.00000954px;font-family:'Comic Sans MS';-inkscape-font-specification:ComicSansMS;writing-mode:lr-tb;fill:#2a5e78;fill-opacity:1;fill-rule:nonzero;stroke:none"
       transform="matrix(0.9335768,-0.3583774,-0.3583774,-0.9335768,88.405,110.8679)"><tspan
         id="tspan80"
         y="0"
         x="0">e</tspan></text>
<text
       id="text86"
       style="font-variant:normal;font-weight:normal;font-stretch:normal;font-size:9.00004005px;font-family:'Comic Sans MS';-inkscape-font-specification:ComicSansMS;writing-mode:lr-tb;fill:#2a5e78;fill-opacity:1;fill-rule:nonzero;stroke:none"
       transform="matrix(0.88819607,-0.45946463,-0.45946463,-0.88819607,92.8236,109.1647)"><tspan
         id="tspan84"
         y="0"
         x="0">r</tspan></text>
<text
       id="text90"
       style="font-variant:normal;font-weight:normal;font-stretch:normal;font-size:8.99998379px;font-family:'Comic Sans MS';-inkscape-font-specification:ComicSansMS;writing-mode:lr-tb;fill:#2a5e78;fill-opacity:1;fill-rule:nonzero;stroke:none"
       transform="matrix(0.81766811,-0.5756899,-0.5756899,-0.81766811,96.55,107.3535)"><tspan
         id="tspan88"
         y="0"
         x="0">m</tspan></text>
<text
       id="text94"
       style="font-variant:normal;font-weight:normal;font-stretch:normal;font-size:9.00002289px;font-family:'Comic Sans MS';-inkscape-font-specification:ComicSansMS;writing-mode:lr-tb;fill:#2a5e78;fill-opacity:1;fill-rule:nonzero;stroke:none"
       transform="matrix(0.72768701,-0.68590934,-0.68590934,-0.72768701,102.0422,103.4163)"><tspan
         id="tspan92"
         y="0"
         x="0">é</tspan></text>
<text
       id="text98"
       style="font-variant:normal;font-weight:normal;font-stretch:normal;font-size:8.99997425px;font-family:'Comic Sans MS';-inkscape-font-specification:ComicSansMS;writing-mode:lr-tb;fill:#2a5e78;fill-opacity:1;fill-rule:nonzero;stroke:none"
       transform="matrix(0.63813513,-0.76992439,-0.76992439,-0.63813513,105.5154,100.1722)"><tspan
         id="tspan96"
         y="0"
         x="0">d</tspan></text>
<text
       id="text102"
       style="font-variant:normal;font-weight:normal;font-stretch:normal;font-size:8.99996662px;font-family:'Comic Sans MS';-inkscape-font-specification:ComicSansMS;writing-mode:lr-tb;fill:#2a5e78;fill-opacity:1;fill-rule:nonzero;stroke:none"
       transform="matrix(0.56329097,-0.82625861,-0.82625861,-0.56329097,108.7408,96.1929)"><tspan
         id="tspan100"
         y="0"
         x="0">i</tspan></text>
<text
       id="text106"
       style="font-variant:normal;font-weight:normal;font-stretch:normal;font-size:8.99999237px;font-family:'Comic Sans MS';-inkscape-font-specification:ComicSansMS;writing-mode:lr-tb;fill:#2a5e78;fill-opacity:1;fill-rule:nonzero;stroke:none"
       transform="matrix(0.49007818,-0.87167849,-0.87167849,-0.49007818,110.1283,94.2466)"><tspan
         id="tspan104"
         y="0"
         x="0">a</tspan></text>
<text
       id="text110"
       style="font-variant:normal;font-weight:normal;font-stretch:normal;font-size:8.99998474px;font-family:'Comic Sans MS';-inkscape-font-specification:ComicSansMS;writing-mode:lr-tb;fill:#2a5e78;fill-opacity:1;fill-rule:nonzero;stroke:none"
       transform="matrix(0.41308957,-0.9106904,-0.9106904,-0.41308957,112.2846,90.3357)"><tspan
         id="tspan108"
         y="0"
         x="0">i</tspan></text>
<text
       id="text114"
       style="font-variant:normal;font-weight:normal;font-stretch:normal;font-size:9.00005341px;font-family:'Comic Sans MS';-inkscape-font-specification:ComicSansMS;writing-mode:lr-tb;fill:#2a5e78;fill-opacity:1;fill-rule:nonzero;stroke:none"
       transform="matrix(0.33590912,-0.9418944,-0.9418944,-0.33590912,113.3151,88.1638)"><tspan
         id="tspan112"
         y="0"
         x="0">r</tspan></text>
<text
       id="text118"
       style="font-variant:normal;font-weight:normal;font-stretch:normal;font-size:9.00006676px;font-family:'Comic Sans MS';-inkscape-font-specification:ComicSansMS;writing-mode:lr-tb;fill:#2a5e78;fill-opacity:1;fill-rule:nonzero;stroke:none"
       transform="matrix(0.22895387,-0.97343727,-0.97343727,-0.22895387,114.7327,84.2661)"><tspan
         id="tspan116"
         y="0"
         x="0">e</tspan></text>
<text
       id="text122"
       style="font-variant:normal;font-weight:normal;font-stretch:normal;font-size:8.99998188px;font-family:'Comic Sans MS';-inkscape-font-specification:ComicSansMS;writing-mode:lr-tb;fill:#2b5f79;fill-opacity:1;fill-rule:nonzero;stroke:none"
       transform="matrix(0.97670193,-0.21460042,-0.21460042,-0.97670193,56.8133,24.6505)"><tspan
         id="tspan120"
         y="0"
         x="0">V</tspan></text>
<text
       id="text126"
       style="font-variant:normal;font-weight:normal;font-stretch:normal;font-size:8.99999619px;font-family:'Comic Sans MS';-inkscape-font-specification:ComicSansMS;writing-mode:lr-tb;fill:#2b5f79;fill-opacity:1;fill-rule:nonzero;stroke:none"
       transform="matrix(0.99036709,-0.13846673,-0.13846673,-0.99036709,62.8381,23.3566)"><tspan
         id="tspan124"
         y="0"
         x="0">e</tspan></text>
<text
       id="text130"
       style="font-variant:normal;font-weight:normal;font-stretch:normal;font-size:9.00005054px;font-family:'Comic Sans MS';-inkscape-font-specification:ComicSansMS;writing-mode:lr-tb;fill:#2b5f79;fill-opacity:1;fill-rule:nonzero;stroke:none"
       transform="matrix(0.99740546,-0.07198848,-0.07198848,-0.99740546,68.0092,22.6535)"><tspan
         id="tspan128"
         y="0"
         x="0">r</tspan></text>
<text
       id="text134"
       style="font-variant:normal;font-weight:normal;font-stretch:normal;font-size:9.00002384px;font-family:'Comic Sans MS';-inkscape-font-specification:ComicSansMS;writing-mode:lr-tb;fill:#2b5f79;fill-opacity:1;fill-rule:nonzero;stroke:none"
       transform="matrix(0.9999973,-0.00232222,-0.00232222,-0.9999973,72.6047,22.315)"><tspan
         id="tspan132"
         y="0"
         x="0">b</tspan></text>
<text
       id="text138"
       style="font-variant:normal;font-weight:normal;font-stretch:normal;font-size:9px;font-family:'Comic Sans MS';-inkscape-font-specification:ComicSansMS;writing-mode:lr-tb;fill:#2b5f79;fill-opacity:1;fill-rule:nonzero;stroke:none"
       transform="matrix(0.99742225,0.07175556,0.07175556,-0.99742225,78.2496,22.3208)"><tspan
         id="tspan136"
         y="0"
         x="0">e</tspan></text>
<text
       id="text142"
       style="font-variant:normal;font-weight:normal;font-stretch:normal;font-size:9.00005627px;font-family:'Comic Sans MS';-inkscape-font-specification:ComicSansMS;writing-mode:lr-tb;fill:#2b5f79;fill-opacity:1;fill-rule:nonzero;stroke:none"
       transform="matrix(0.99044937,0.13787692,0.13787692,-0.99044937,83.4258,22.7116)"><tspan
         id="tspan140"
         y="0"
         x="0">r</tspan></text>
<text
       id="text146"
       style="font-variant:normal;font-weight:normal;font-stretch:normal;font-size:8.99997807px;font-family:'Comic Sans MS';-inkscape-font-specification:ComicSansMS;writing-mode:lr-tb;fill:#2b5f79;fill-opacity:1;fill-rule:nonzero;stroke:none"
       transform="matrix(0.98248018,0.18636712,0.18636712,-0.98248018,87.9057,23.3632)"><tspan
         id="tspan144"
         y="0"
         x="0">i</tspan></text>
<text
       id="text150"
       style="font-variant:normal;font-weight:normal;font-stretch:normal;font-size:9.00004387px;font-family:'Comic Sans MS';-inkscape-font-specification:ComicSansMS;writing-mode:lr-tb;fill:#2b5f79;fill-opacity:1;fill-rule:nonzero;stroke:none"
       transform="matrix(0.97116188,0.23842105,0.23842105,-0.97116188,90.6122,23.8496)"><tspan
         id="tspan148"
         y="0"
         x="0">e</tspan></text>
<g
       id="g152"><g
         clip-path="url(#clipPath158)"
         id="g154"><g
           transform="translate(70.1948,82.0518)"
           id="g160"><path
             id="path162"
             style="fill:#ffffff;fill-opacity:1;fill-rule:nonzero;stroke:none"
             d="m 0,0 c 0,0 -2.746,-3.139 -5.174,-3.543 -0.642,-0.107 -1.212,-0.135 -1.823,-0.216 -0.5,-0.066 -1.016,0.019 -1.447,0.101 -0.566,0.109 -1.04,0.344 -1.432,0.534 -0.262,0.128 -0.53,0.281 -0.693,0.429 -0.81,0.728 -0.998,1.337 -0.675,1.903 0.324,0.567 2.348,1.781 3.157,2.509 0.809,0.728 2.266,2.023 2.751,2.994 0.486,0.972 0.648,1.781 1.214,1.862 0.566,0.081 4.208,0 7.041,0.566 2.832,0.567 4.855,0.567 6.312,0 1.457,-0.566 3.237,-1.537 4.128,-1.78 0.89,-0.243 4.289,-0.081 5.422,-0.405 1.133,-0.324 3.641,-1.699 5.341,-1.456 1.699,0.242 3.641,0.485 5.421,1.699 1.782,1.214 6.941,4.157 6.941,4.157 0,0 0.225,-0.295 0.541,-0.763 0.349,-0.518 0.811,-1.246 1.283,-2.007 0.268,-0.432 0.529,-0.895 0.753,-1.322 0.124,-0.234 0.223,-0.465 0.347,-0.658 0.664,-1.04 1.748,-3.724 2.525,-6.124 0.641,-1.976 0.942,-3.78 1.058,-4.228 0.07,-0.269 0.122,-0.669 0.196,-1.111 0.107,-0.64 0.19,-1.393 0.275,-2.105 0.184,-1.538 0.203,-2.916 0.203,-2.916 0,0 -2.063,-0.161 -4.167,-1.375 -2.104,-1.214 -4.046,-2.022 -5.26,-3.317 -1.214,-1.295 -2.428,-3.238 -2.428,-3.238 0,0 0,1.619 -0.81,2.509 -0.809,0.89 -8.708,7.27 -10.439,8.27 -1.771,1.022 -5.335,4.528 -6.035,5.028 -0.686,0.488 -1.602,1.702 -2.566,2.293 -0.938,0.575 -3.499,1.192 -4.712,1.111 C 6.034,-0.68 3.336,-0.415 2.2,-0.415 0.582,-0.415 0,0 0,0" /></g><g
           transform="translate(42.3774,86.4009)"
           id="g164"><path
             id="path166"
             style="fill:#ffffff;fill-opacity:1;fill-rule:nonzero;stroke:none"
             d="m 0,0 c 0,0 -0.362,-0.771 -0.914,-2.196 -0.363,-0.937 -0.742,-2.028 -1.087,-3.315 -0.142,-0.53 -0.284,-1.064 -0.405,-1.594 -0.315,-1.382 -0.544,-2.724 -0.675,-3.792 -0.219,-1.784 -0.389,-4.292 -0.269,-6.457 0.053,-0.949 0.116,-1.838 0.196,-2.585 0.142,-1.304 0.303,-2.173 0.303,-2.173 0,0 2.923,-0.768 4.291,-1.681 1.369,-0.913 3.346,-3.65 5.17,-5.018 1.826,-1.369 4.411,-3.802 6.235,-4.258 1.825,-0.456 3.041,-0.152 4.258,-0.761 1.216,-0.608 2.433,-1.672 3.801,-1.976 1.369,-0.304 5.475,-0.456 6.691,-0.304 1.217,0.152 2.433,1.065 3.345,0.152 0.913,-0.913 3.194,-2.585 4.715,-3.65 1.52,-1.064 3.497,-1.976 4.714,-1.368 1.215,0.608 1.976,0.608 1.976,1.52 0,0.913 0.304,2.433 0.304,2.433 0,0 1.521,-0.912 2.434,-0.912 0.912,0 3.041,0.608 3.801,1.52 0.76,0.913 1.065,3.194 1.065,3.194 0,0 0.759,-0.456 1.52,0 0.76,0.456 1.824,1.825 2.129,2.737 0.304,0.912 0.456,2.433 0.456,2.433 0,0 1.824,-0.152 2.889,0.456 1.064,0.608 2.682,2.283 2.684,3.436 10e-4,0.367 -0.066,0.812 -0.204,1.337 -0.295,1.134 -1.365,2.442 -2.631,3.286 -1.004,0.67 -3.689,2.731 -6.271,4.646 -2.112,1.565 -4.184,3.009 -4.982,3.718 -1.747,1.552 -3.955,3.498 -4.867,4.41 -0.912,0.912 -2.289,1.451 -4.103,1.698 -1.773,0.241 -3.441,0.377 -5.79,0.302 -2.3,-0.073 -3.025,0.45 -3.025,0.45 0,0 -1.035,-1.305 -2.744,-2.298 -1.679,-0.976 -4.054,-1.934 -5.879,-1.326 -1.824,0.608 -2.18,1.022 -2.485,1.782 -0.303,0.76 -0.049,1.109 0.711,1.717 0.76,0.609 2.824,2.025 2.824,2.025 0,0 -1.101,0.516 -3.991,-0.244 C 13.301,-3.417 11.933,-3.873 9.804,-3.569 7.675,-3.265 0,0 0,0" /></g><g
           transform="translate(54.2754,53.7002)"
           id="g168"><path
             id="path170"
             style="fill:#ffffff;fill-opacity:1;fill-rule:nonzero;stroke:none"
             d="m 0,0 c 0,0 0.976,-0.402 1.791,-0.538 0.15,-0.024 0.278,-0.053 0.411,-0.055 0.743,-0.01 1.286,-0.082 1.981,-0.205 0.116,-0.02 0.237,-0.059 0.362,-0.082 0.983,-0.172 2.554,-1.423 3.503,-1.849 0.95,-0.428 3.818,-0.726 5.21,-0.728 1.16,-0.002 3.754,0.66 4.955,0.593 0.232,-0.013 0.419,-0.086 0.526,-0.16 0.663,-0.459 3.027,-2.478 3.976,-3.142 0.949,-0.665 2.078,-1.396 2.078,-1.396 0,0 -0.941,-1.669 -2.461,-2.001 -1.518,-0.333 -2.799,-0.807 -3.749,-0.57 -0.949,0.237 -1.708,1.234 -2.04,1.993 -0.332,0.759 -0.285,1.329 -0.285,1.329 0,0 -0.284,-1.139 -0.807,-1.377 -0.522,-0.237 -2.278,-0.711 -2.942,-0.426 -0.664,0.285 -1.566,0.806 -1.803,1.376 -0.237,0.569 -0.143,1.661 -0.143,1.661 0,0 -0.379,-1.187 -0.664,-1.376 -0.285,-0.191 -0.712,-0.285 -1.471,-0.237 -0.76,0.046 -2.373,0.237 -2.847,0.711 -0.475,0.475 -1.187,1.756 -1.329,2.373 -0.143,0.617 -0.047,1.709 -0.047,1.709 0,0 -0.048,-1.044 -0.475,-1.567 -0.427,-0.521 -1.519,-0.759 -2.278,-0.474 -0.759,0.285 -1.614,0.806 -2.041,1.329 -0.427,0.521 -0.617,1.186 -0.522,1.613 C -1.016,-1.068 0,0 0,0" /></g><g
           id="g172"><g
             id="g174" /><g
             id="g186"><g
               style="opacity:0.5"
               id="g184"
               clip-path="url(#clipPath178)"><g
                 id="g182"
                 transform="translate(82.4414,47.249)"><path
                   id="path180"
                   style="fill:#6ba5d9;fill-opacity:1;fill-rule:nonzero;stroke:none"
                   d="m 0,0 c -1.419,0.102 -3.548,1.521 -5.068,2.535 -1.521,1.014 -2.535,2.433 -3.245,2.94 -0.709,0.506 -2.635,0.303 -4.46,0.203 -1.825,-0.102 -3.345,-0.305 -5.17,0.507 -1.825,0.81 -5.474,3.446 -7.299,3.851 -1.825,0.406 -4.967,2.231 -6.691,3.549 -1.723,1.317 -3.041,3.143 -4.257,4.358 -1.217,1.217 -7.009,2.524 -7.009,2.524 l 0.284,-3.427 c 0.521,-0.187 3.57,-1.2 4.291,-1.682 1.369,-0.912 3.346,-3.649 5.17,-5.017 1.826,-1.369 4.411,-3.802 6.235,-4.258 1.825,-0.456 3.041,-0.152 4.258,-0.761 1.216,-0.608 2.433,-1.673 3.801,-1.976 1.369,-0.304 5.475,-0.456 6.691,-0.304 1.217,0.151 2.433,1.064 3.345,0.151 0.913,-0.912 3.194,-2.585 4.715,-3.649 1.52,-1.065 3.497,-1.977 4.714,-1.368 1.216,0.608 1.976,0.608 1.976,1.52 v 0.021 C 1.484,-0.162 0.611,-0.043 0,0" /></g></g></g></g><g
           id="g188"><g
             id="g190" /><g
             id="g202"><g
               style="opacity:0.5"
               id="g200"
               clip-path="url(#clipPath194)"><g
                 id="g198"
                 transform="translate(76.2031,54.2764)"><path
                   id="path196"
                   style="fill:#6ba5d9;fill-opacity:1;fill-rule:nonzero;stroke:none"
                   d="m 0,0 c 0,0 2.534,-1.622 4.156,-2.434 1.3,-0.649 3.909,-2.102 5.348,-2.828 0.356,-0.18 0.668,-0.284 0.839,-0.356 0.293,-0.125 0.592,-0.195 0.865,-0.192 0.575,0.01 1.129,0.114 1.742,0.318 0.447,0.149 0.947,0.359 1.319,0.578 0.385,0.227 0.634,0.46 0.634,0.46 0,0 -1.826,0.095 -3.346,0.601 -1.521,0.507 -6.184,2.535 -7.502,3.447 C 2.737,0.507 0.507,1.521 -0.304,1.824 -1.115,2.129 -1.014,0.912 0,0" /></g></g></g></g><g
           id="g204"><g
             id="g206" /><g
             id="g218"><g
               style="opacity:0.5"
               id="g216"
               clip-path="url(#clipPath210)"><g
                 id="g214"
                 transform="translate(79.502,62.959)"><path
                   id="path212"
                   style="fill:#6ba5d9;fill-opacity:1;fill-rule:nonzero;stroke:none"
                   d="m 0,0 c 0,0 0.304,-1.521 1.014,-2.332 0.71,-0.811 1.013,-0.71 2.027,-1.419 1.014,-0.71 3.346,-1.927 4.461,-2.636 1.115,-0.71 2.824,-1.871 3.636,-2.378 0.81,-0.506 1.959,-1.393 2.657,-1.205 0.104,0.028 0.254,0.048 0.4,0.113 0.188,0.083 0.376,0.219 0.516,0.346 0.446,0.407 0.818,0.797 0.929,1.007 0.149,0.284 -0.738,-0.925 -2.664,0.495 C 11.05,-6.59 9.326,-4.157 7.4,-3.143 5.475,-2.129 3.853,-1.014 2.433,-0.507 1.014,0 0,0 0,0" /></g></g></g></g><g
           id="g220"><g
             id="g222" /><g
             id="g234"><g
               style="opacity:0.5"
               id="g232"
               clip-path="url(#clipPath226)"><g
                 id="g230"
                 transform="translate(83.543,69.5127)"><path
                   id="path228"
                   style="fill:#6ba5d9;fill-opacity:1;fill-rule:nonzero;stroke:none"
                   d="m 0,0 c 0,0 -0.202,-1.216 0.507,-1.926 0.71,-0.71 1.723,-1.52 2.23,-1.723 0.507,-0.203 3.853,-1.521 5.272,-2.838 1.419,-1.319 3.041,-1.724 3.852,-2.941 0.811,-1.217 1.028,-1.735 1.028,-1.735 0,0 0.393,-0.028 0.924,0 0.272,0.015 0.605,0.007 0.887,0.086 0.04,0.011 0.081,0.019 0.123,0.027 0.07,0.013 0.141,0.036 0.211,0.053 0.272,0.068 0.536,0.178 0.743,0.29 0.119,0.064 0.219,0.134 0.307,0.194 0.243,0.168 0.382,0.287 0.382,0.287 0,0 -0.854,0.088 -2.374,1.508 C 12.57,-7.299 10.949,-6.184 8.617,-4.46 6.285,-2.737 5.981,-3.244 3.549,-1.824 1.115,-0.405 0,0 0,0" /></g></g></g></g><g
           id="g236"><g
             id="g238" /><g
             id="g250"><g
               style="opacity:0.5"
               id="g248"
               clip-path="url(#clipPath242)"><g
                 id="g246"
                 transform="translate(58.834,80.8213)"><path
                   id="path244"
                   style="fill:#6ba5d9;fill-opacity:1;fill-rule:nonzero;stroke:none"
                   d="m 0,0 c -0.145,-0.491 0.195,-1.133 0.893,-1.761 0.809,-0.729 2.849,-1.16 5.277,-0.755 2.428,0.404 5.179,3.641 5.179,3.641 0,0 0.567,-0.404 2.185,-0.404 1.136,0 3.885,-0.162 5.099,-0.081 1.214,0.081 3.641,-0.89 4.693,-1.214 1.053,-0.324 1.943,-1.78 2.59,-2.347 0.647,-0.566 4.37,-3.885 6.069,-4.936 1.701,-1.052 9.55,-7.527 10.36,-8.417 0.808,-0.89 0.826,-2.305 0.826,-2.305 0,0 1.167,1.815 2.276,3.07 0.803,0.907 2.072,1.643 3.466,2.405 0.634,0.347 1.282,0.719 1.945,1.08 1.021,0.555 1.913,0.867 2.49,1.034 0.695,0.202 1.056,0.251 1.056,0.251 l -0.407,4.478 c 0,0 -0.084,-0.005 -1.199,-0.512 -1.115,-0.507 -3.458,-2.571 -4.674,-3.686 -1.217,-1.115 -3.244,-2.129 -4.765,-1.217 -1.521,0.912 -0.304,2.028 -0.304,3.346 0,1.317 0.811,2.635 0.203,2.433 -0.609,-0.203 -2.231,0.405 -2.941,1.317 -0.709,0.913 -0.1,5.069 -0.1,5.069 0,0 -0.305,-1.013 -0.913,-2.534 -0.609,-1.521 -2.231,-1.825 -4.055,-2.23 -1.825,-0.406 -4.765,1.013 -6.995,1.926 -2.231,0.912 -3.244,2.838 -4.055,4.156 -0.811,1.318 -0.203,2.534 -0.203,2.534 0,0 -0.709,-0.202 -1.419,-0.709 -0.71,-0.507 -3.041,-0.912 -4.561,-1.014 -1.521,-0.101 -2.13,0 -4.36,0.507 -2.23,0.507 -2.433,1.115 -2.433,1.115 L 10.817,3.328 C 10.412,2.416 8.283,0.591 6.763,-0.322 5.242,-1.234 4.025,-1.031 1.998,-0.727 -0.03,-0.423 0.101,0.235 0.101,0.235 Z" /></g></g></g></g><g
           id="g252"><g
             id="g254" /><g
             id="g266"><g
               style="opacity:0.80000299"
               id="g264"
               clip-path="url(#clipPath258)"><g
                 id="g262"
                 transform="translate(65.7524,50.0508)"><path
                   id="path260"
                   style="fill:#6ba5d9;fill-opacity:1;fill-rule:nonzero;stroke:none"
                   d="M 0,0 C 1.766,-0.039 3.189,-0.447 4.586,-1.52 4.718,-1.621 4.915,-1.421 4.817,-1.289 3.786,0.106 1.562,0.305 -0.011,0.083 -0.06,0.076 -0.046,0.001 0,0" /></g></g></g></g><g
           id="g268"><g
             id="g270" /><g
             id="g282"><g
               style="opacity:0.80000299"
               id="g280"
               clip-path="url(#clipPath274)"><g
                 id="g278"
                 transform="translate(76.5449,46.7871)"><path
                   id="path276"
                   style="fill:#6ba5d9;fill-opacity:1;fill-rule:nonzero;stroke:none"
                   d="m 0,0 c -0.934,2.727 -6.835,2.711 -6.006,-0.624 1.109,-4.452 6.457,-2.911 8.659,-0.244 0.12,0.146 -0.043,0.422 -0.221,0.287 -1.828,-1.376 -4.163,-3.468 -6.557,-2.003 -0.697,0.427 -1.235,0.996 -1.442,1.836 -0.239,0.964 0.17,1.561 0.95,2.029 1.572,0.944 3.653,0.168 4.42,-1.364 C -0.143,-0.191 0.04,-0.116 0,0" /></g></g></g></g><g
           id="g284"><g
             id="g286" /><g
             id="g298"><g
               style="opacity:0.80000299"
               id="g296"
               clip-path="url(#clipPath290)"><g
                 id="g294"
                 transform="translate(93.9238,70.6182)"><path
                   id="path292"
                   style="fill:#6ba5d9;fill-opacity:1;fill-rule:nonzero;stroke:none"
                   d="m 0,0 c 3.581,1.896 5.33,7.051 4.988,10.87 -0.016,0.19 -0.296,0.196 -0.3,0 C 4.647,8.697 4.368,6.606 3.453,4.611 2.613,2.779 1.296,1.497 -0.028,0.037 -0.046,0.017 -0.023,-0.013 0,0" /></g></g></g></g><g
           id="g300"><g
             id="g302" /><g
             id="g314"><g
               style="opacity:0.80000299"
               id="g312"
               clip-path="url(#clipPath306)"><g
                 id="g310"
                 transform="translate(93.9648,70.6006)"><path
                   id="path308"
                   style="fill:#6ba5d9;fill-opacity:1;fill-rule:nonzero;stroke:none"
                   d="M 0,0 C 1.996,1.835 3.911,3.151 6.521,3.942 6.713,4 6.685,4.309 6.473,4.301 4.076,4.214 1.155,2.037 -0.037,0.028 -0.051,0.005 -0.02,-0.018 0,0" /></g></g></g></g><g
           id="g316"><g
             id="g318" /><g
             id="g330"><g
               style="opacity:0.80000299"
               id="g328"
               clip-path="url(#clipPath322)"><g
                 id="g326"
                 transform="translate(77.8838,75.8101)"><path
                   id="path324"
                   style="fill:#6ba5d9;fill-opacity:1;fill-rule:nonzero;stroke:none"
                   d="M 0,0 C 1.149,-0.25 2.334,-0.097 3.479,-0.336 4.788,-0.61 5.776,-1.469 6.35,-2.659 6.425,-2.814 6.699,-2.702 6.632,-2.54 6.215,-1.532 5.552,-0.75 4.539,-0.301 3.135,0.322 1.546,-0.028 0.072,0.262 -0.099,0.295 -0.172,0.037 0,0" /></g></g></g></g><g
           id="g332"><g
             id="g334" /><g
             id="g346"><g
               style="opacity:0.80000299"
               id="g344"
               clip-path="url(#clipPath338)"><g
                 id="g342"
                 transform="translate(77.873,70.5186)"><path
                   id="path340"
                   style="fill:#6ba5d9;fill-opacity:1;fill-rule:nonzero;stroke:none"
                   d="M 0,0 C 0.396,-0.18 0.76,-0.465 1.11,-0.719 1.444,-0.962 2.02,-1.289 2.202,-1.685 2.26,-1.812 2.443,-1.701 2.388,-1.576 2.215,-1.183 1.706,-0.874 1.38,-0.623 0.989,-0.323 0.579,0.014 0.132,0.228 -0.021,0.3 -0.153,0.07 0,0" /></g></g></g></g><g
           id="g348"><g
             id="g350" /><g
             id="g362"><g
               style="opacity:0.80000299"
               id="g360"
               clip-path="url(#clipPath354)"><g
                 id="g358"
                 transform="translate(74.8984,64.957)"><path
                   id="path356"
                   style="fill:#6ba5d9;fill-opacity:1;fill-rule:nonzero;stroke:none"
                   d="m 0,0 c 1.245,-0.244 2.845,-1.462 2.768,-2.904 -0.011,-0.191 0.269,-0.182 0.29,0 C 3.242,-1.278 1.526,0.115 0.112,0.407 -0.153,0.462 -0.266,0.053 0,0" /></g></g></g></g><g
           id="g364"><g
             id="g366" /><g
             id="g378"><g
               style="opacity:0.80000299"
               id="g376"
               clip-path="url(#clipPath370)"><g
                 id="g374"
                 transform="translate(71.6621,57.3506)"><path
                   id="path372"
                   style="fill:#6ba5d9;fill-opacity:1;fill-rule:nonzero;stroke:none"
                   d="m 0,0 c 0.792,-0.486 1.309,-1.201 1.662,-2.051 0.076,-0.184 0.36,-0.12 0.307,0.084 C 1.714,-0.996 1.021,-0.22 0.161,0.275 -0.018,0.378 -0.175,0.107 0,0" /></g></g></g></g></g></g></g></svg>